HIERARCHY
ROOT Hips
{
	OFFSET 0.000000 0.000000 0.000000 
	CHANNELS 6 Xposition Yposition Zposition Yrotation Xrotation Zrotation
	JOINT Spine
	{
		OFFSET 0.000000 0.072080 0.012321 
		CHANNELS 3 Xrotation Yrotation Zrotation
		JOINT Spine1
		{
			OFFSET 0.000000 0.126984 -0.001294 
			CHANNELS 3 Xrotation Yrotation Zrotation
			JOINT Spine2
			{
				OFFSET 0.000000 0.106559 -0.010096 
				CHANNELS 3 Xrotation Yrotation Zrotation
				JOINT Neck
				{
					OFFSET 0.000000 0.108417 -0.034017 
					CHANNELS 3 Xrotation Yrotation Zrotation
					JOINT Neck1
					{
						OFFSET 0.000000 0.033906 0.007241 
						CHANNELS 3 Xrotation Yrotation Zrotation
						JOINT Head
						{
							OFFSET 0.000000 0.031458 0.006707 
							CHANNELS 3 Xrotation Yrotation Zrotation
							End Site
							{
								OFFSET 0.000000 0.179920 0.000962 
							}
						}
					}
				}
				JOINT LeftShoulder
				{
					OFFSET 0.048002 0.079586 -0.029634 
					CHANNELS 3 Zrotation Xrotation Yrotation
					JOINT LeftArm
					{
						OFFSET 0.096243 -0.008695 -0.014012 
						CHANNELS 3 Zrotation Xrotation Yrotation
						JOINT LeftForeArm
						{
							OFFSET 0.216305 0.000000 0.000000 
							CHANNELS 3 Xrotation Zrotation Yrotation
							JOINT LeftHand
							{
								OFFSET 0.217764 0.000000 0.000000 
								CHANNELS 3 Zrotation Yrotation Xrotation
								JOINT LeftHandThumb1
								{
									OFFSET 0.018582 -0.007835 0.020476 
									CHANNELS 3 Zrotation Xrotation Yrotation
									JOINT LeftHandThumb2
									{
										OFFSET 0.026269 -0.007835 0.022186 
										CHANNELS 3 Zrotation Xrotation Yrotation
										JOINT LeftHandThumb3
										{
											OFFSET 0.035170 -0.010504 0.017018 
											CHANNELS 3 Zrotation Xrotation Yrotation
											End Site
											{
												OFFSET 0.020312 -0.007813 0.007813 
											}
										}
									}
								}
								JOINT LeftHandMiddle1
								{
									OFFSET 0.081749 0.004803 0.003358 
									CHANNELS 3 Zrotation Xrotation Yrotation
									JOINT LeftHandMiddle2
									{
										OFFSET 0.045251 0.000000 0.000000 
										CHANNELS 3 Zrotation Xrotation Yrotation
										JOINT LeftHandMiddle3
										{
											OFFSET 0.029009 0.000000 0.000000 
											CHANNELS 3 Zrotation Xrotation Yrotation
											End Site
											{
												OFFSET 0.017969 0.000000 0.000000 
											}
										}
									}
								}
								JOINT LeftHandIndex1
								{
									OFFSET 0.081207 0.004803 0.021137 
									CHANNELS 3 Zrotation Xrotation Yrotation
									JOINT LeftHandIndex2
									{
										OFFSET 0.043354 0.000000 0.000000 
										CHANNELS 3 Zrotation Xrotation Yrotation
										JOINT LeftHandIndex3
										{
											OFFSET 0.026493 0.000000 0.000000 
											CHANNELS 3 Zrotation Xrotation Yrotation
											End Site
											{
												OFFSET 0.019531 0.000000 0.000000 
											}
										}
									}
								}
								JOINT LeftHandRing1
								{
									OFFSET 0.080666 0.002509 -0.014652 
									CHANNELS 3 Zrotation Xrotation Yrotation
									JOINT LeftHandRing2
									{
										OFFSET 0.042541 0.000000 0.000000 
										CHANNELS 3 Zrotation Xrotation Yrotation
										JOINT LeftHandRing3
										{
											OFFSET 0.029009 0.000000 0.000000 
											CHANNELS 3 Zrotation Xrotation Yrotation
											End Site
											{
												OFFSET 0.015625 0.000000 0.000000 
											}
										}
									}
								}
								JOINT LeftHandPinky1
								{
									OFFSET 0.078227 -0.000612 -0.030993 
									CHANNELS 3 Zrotation Xrotation Yrotation
									JOINT LeftHandPinky2
									{
										OFFSET 0.028721 0.000000 0.000000 
										CHANNELS 3 Zrotation Xrotation Yrotation
										JOINT LeftHandPinky3
										{
											OFFSET 0.021963 0.000000 0.000000 
											CHANNELS 3 Zrotation Xrotation Yrotation
											End Site
											{
												OFFSET 0.022656 0.000000 0.000000 
											}
										}
									}
								}
							}
						}
					}
				}
				JOINT RightShoulder
				{
					OFFSET -0.047970 0.079586 -0.029634 
					CHANNELS 3 Zrotation Xrotation Yrotation
					JOINT RightArm
					{
						OFFSET -0.096274 -0.008695 -0.014012 
						CHANNELS 3 Zrotation Xrotation Yrotation
						JOINT RightForeArm
						{
							OFFSET -0.216305 0.000000 0.000000 
							CHANNELS 3 Xrotation Zrotation Yrotation
							JOINT RightHand
							{
								OFFSET -0.217764 0.000000 0.000000 
								CHANNELS 3 Zrotation Yrotation Xrotation
								JOINT RightHandThumb1
								{
									OFFSET -0.019670 -0.007318 0.019638 
									CHANNELS 3 Zrotation Xrotation Yrotation
									JOINT RightHandThumb2
									{
										OFFSET -0.025498 -0.008492 0.023179 
										CHANNELS 3 Zrotation Xrotation Yrotation
										JOINT RightHandThumb3
										{
											OFFSET -0.034504 -0.010705 0.016680 
											CHANNELS 3 Zrotation Xrotation Yrotation
											End Site
											{
												OFFSET -0.020312 -0.007813 0.007813 
											}
										}
									}
								}
								JOINT RightHandIndex1
								{
									OFFSET -0.081770 0.003825 0.021187 
									CHANNELS 3 Zrotation Xrotation Yrotation
									JOINT RightHandIndex2
									{
										OFFSET -0.042006 0.000000 0.000000 
										CHANNELS 3 Zrotation Xrotation Yrotation
										JOINT RightHandIndex3
										{
											OFFSET -0.026449 0.000000 0.000000 
											CHANNELS 3 Zrotation Xrotation Yrotation
											End Site
											{
												OFFSET -0.020312 0.000000 0.000000 
											}
										}
									}
								}
								JOINT RightHandMiddle1
								{
									OFFSET -0.084059 0.003825 0.003342 
									CHANNELS 3 Zrotation Xrotation Yrotation
									JOINT RightHandMiddle2
									{
										OFFSET -0.043881 0.000000 0.000000 
										CHANNELS 3 Zrotation Xrotation Yrotation
										JOINT RightHandMiddle3
										{
											OFFSET -0.029191 0.000000 0.000000 
											CHANNELS 3 Zrotation Xrotation Yrotation
											End Site
											{
												OFFSET -0.017969 0.000000 0.000000 
											}
										}
									}
								}
								JOINT RightHandRing1
								{
									OFFSET -0.081798 0.003030 -0.015127 
									CHANNELS 3 Zrotation Xrotation Yrotation
									JOINT RightHandRing2
									{
										OFFSET -0.042198 0.000000 0.000000 
										CHANNELS 3 Zrotation Xrotation Yrotation
										JOINT RightHandRing3
										{
											OFFSET -0.026497 0.000000 0.000000 
											CHANNELS 3 Zrotation Xrotation Yrotation
											End Site
											{
												OFFSET -0.017188 0.000000 0.000000 
											}
										}
									}
								}
								JOINT RightHandPinky1
								{
									OFFSET -0.077902 -0.000930 -0.030891 
									CHANNELS 3 Zrotation Xrotation Yrotation
									JOINT RightHandPinky2
									{
										OFFSET -0.028538 0.000000 0.000000 
										CHANNELS 3 Zrotation Xrotation Yrotation
										JOINT RightHandPinky3
										{
											OFFSET -0.021734 0.000000 0.000000 
											CHANNELS 3 Zrotation Xrotation Yrotation
											End Site
											{
												OFFSET -0.022656 0.000000 0.000000 
											}
										}
									}
								}
							}
						}
					}
				}
			}
		}
	}
	JOINT LeftUpLeg
	{
		OFFSET 0.075264 -0.025573 0.000000 
		CHANNELS 3 Xrotation Yrotation Zrotation
		JOINT LeftLeg
		{
			OFFSET 0.000000 -0.326016 -0.013516 
			CHANNELS 3 Xrotation Yrotation Zrotation
			JOINT LeftFoot
			{
				OFFSET 0.000098 -0.306172 -0.006623 
				CHANNELS 3 Xrotation Yrotation Zrotation
				JOINT LeftToeBase
				{
					OFFSET -0.001432 -0.095259 0.064705 
					CHANNELS 3 Xrotation Yrotation Zrotation
					End Site
					{
						OFFSET 0.000000 0.000000 0.079438 
					}
				}
			}
		}
	}
	JOINT RightUpLeg
	{
		OFFSET -0.075264 -0.025573 0.000000 
		CHANNELS 3 Xrotation Yrotation Zrotation
		JOINT RightLeg
		{
			OFFSET 0.000000 -0.326016 -0.013516 
			CHANNELS 3 Xrotation Yrotation Zrotation
			JOINT RightFoot
			{
				OFFSET 0.000098 -0.306172 -0.006623 
				CHANNELS 3 Xrotation Yrotation Zrotation
				JOINT RightToeBase
				{
					OFFSET -0.001432 -0.095259 0.064705 
					CHANNELS 3 Xrotation Yrotation Zrotation
					End Site
					{
						OFFSET 0.000025 0.000000 0.079438 
					}
				}
			}
		}
	}
}
MOTION
Frames: 4
Frame Time: 0.033333
0.030094 0.695773 0.878325 -3.521700 18.500500 3.645600 15.483800 -2.046100 3.355300 8.078300 -0.698700 0.326100 8.076400 -0.693800 0.329600 -0.479100 0.116100 -0.862400 -0.000000 0.000000 -0.000000 9.305400 -0.573000 -3.307700 -23.637800 3.410200 -7.904600 -49.649601 0.758100 -34.160000 -0.000000 -0.000000 -33.569099 0.784900 -12.245700 35.448898 4.151900 5.191800 11.631500 7.288800 10.006400 1.665900 52.833801 -26.437599 -29.134300 -36.280201 -0.000500 -7.902000 -25.906000 0.001500 -0.006600 -23.264400 0.001200 -0.005900 -49.746399 3.913200 -5.018400 -26.757700 0.001600 -0.006700 -9.878200 0.000200 -0.002600 -40.407101 -0.002400 -10.902700 -46.738800 0.004700 -0.010900 -21.624201 0.001100 -0.005500 -38.622501 0.003500 -7.143000 -30.687201 0.002100 -0.007700 -17.170300 0.000700 -0.004400 17.130800 2.825400 8.275600 55.515598 -6.230500 34.831100 -0.000000 0.000000 0.000000 16.575100 -21.254900 -5.071500 -8.727500 -0.507400 -8.388100 -8.174800 -0.611100 17.886900 -30.156300 -21.902399 37.480000 -1.364200 0.000400 1.463700 20.456499 0.000500 0.002800 20.431499 0.000500 0.002800 -6.912800 0.001800 -4.383100 38.151100 0.001700 0.004900 19.814301 0.000500 0.002700 -3.796500 0.005400 -5.295500 44.406898 0.002300 0.005500 19.315399 0.000400 0.002600 -26.457500 -11.595200 -23.760201 36.273201 0.001500 0.004700 17.623699 0.000400 0.002400 -27.688299 5.487600 -6.031300 51.294899 7.869700 -0.504700 -20.814501 0.918300 2.732500 -9.814900 0.003000 -0.628500 -62.341900 0.993400 -1.106600 100.753799 -8.730100 0.557700 -8.070100 -0.188800 0.465900 -3.174300 0.000000 -0.000000 
0.026842 0.707107 0.959411 -2.182200 19.086700 1.985300 14.402200 -1.721400 6.050700 8.007300 -0.722800 0.735400 8.001000 -0.726100 0.741300 0.024300 0.071200 -0.919900 -0.000000 0.000000 -0.000000 11.691800 -0.893300 -3.384700 -23.346701 3.102600 -6.950900 -49.129799 0.664800 -35.744202 -0.000000 0.000000 -52.525200 -2.131200 -12.552200 19.962400 4.151900 5.191900 11.631500 6.735800 10.014100 2.640700 58.351601 -26.589701 -29.963200 -41.724701 0.004200 -9.498400 -26.892900 0.001600 -0.006800 -23.465099 0.001200 -0.006000 -56.965500 5.129700 -6.367100 -27.420500 0.001700 -0.006900 -9.527700 0.000200 -0.002500 -45.947399 0.007200 -12.244400 -50.480099 0.005500 -0.011600 -21.530199 0.001000 -0.005500 -41.959900 -0.000800 -8.356100 -31.530701 0.002200 -0.007900 -17.476000 0.000700 -0.004500 17.340500 2.668800 7.555100 53.898300 -3.614200 27.377100 0.000000 -0.000000 1.634200 28.914400 -20.267500 2.762400 -8.727500 -0.507400 -8.388100 -7.405000 0.356600 17.979099 -30.203300 -21.080700 37.456902 0.374000 -0.000400 3.082800 22.109800 0.000600 0.003000 20.647699 0.000500 0.002800 -6.645900 0.000300 -2.129800 38.638901 0.001700 0.004900 19.739700 0.000500 0.002700 -3.361100 0.002800 -4.206000 44.941299 0.002300 0.005600 19.236500 0.000400 0.002600 -20.716700 -12.204800 -21.510700 38.326599 0.001700 0.004900 17.614901 0.000400 0.002400 -18.761900 5.155800 -4.721300 43.602200 4.832900 1.916400 -14.040600 1.571300 -0.621500 -8.305900 0.089100 -2.340600 -66.978897 -1.317200 -0.759100 89.317497 -9.326900 2.181600 -8.622700 -1.812600 1.174800 -4.091500 0.000000 -0.000000 
0.021982 0.711797 1.040278 -1.172800 20.192101 0.556900 12.804600 -1.833000 7.744900 7.923700 -0.801000 0.930500 7.914700 -0.804600 0.935800 0.246200 0.013800 -0.804000 -0.000000 0.000000 -0.000000 13.212700 -1.011200 -2.936000 -22.392599 2.775900 -6.109400 -49.054401 0.004500 -36.272900 0.000000 -0.000000 -70.510902 -1.637300 -13.185600 4.898400 4.151900 5.191900 11.631500 4.392700 10.004100 6.575800 62.236198 -26.819300 -31.276699 -47.262199 0.004500 -9.811600 -27.735500 0.001700 -0.007000 -23.863899 0.001300 -0.006100 -67.501900 5.015000 -6.043000 -27.973499 0.001700 -0.007100 -8.530700 0.000200 -0.002200 -51.362701 0.005200 -12.307000 -52.472301 0.005900 -0.011900 -21.808100 0.001100 -0.005600 -46.703400 0.004900 -9.410700 -31.931999 0.002300 -0.007900 -17.858200 0.000700 -0.004600 18.664301 2.440300 6.177200 51.606300 0.760100 21.785900 0.000000 0.000000 6.003900 37.417599 -10.334600 2.311700 -8.727500 -0.507400 -8.388100 -6.613100 1.254700 18.031401 -25.244400 -21.074699 31.098000 3.351800 0.004000 2.590100 25.584299 0.000800 0.003400 21.593901 0.000600 0.002900 -2.109200 0.005400 -3.178600 39.518700 0.001800 0.005000 20.178900 0.000500 0.002700 3.645100 0.008700 -5.861300 46.135399 0.002400 0.005700 19.359600 0.000400 0.002600 -14.487100 -12.553200 -21.027399 38.758999 0.001700 0.004900 17.613800 0.000400 0.002400 -11.285600 5.522800 -2.708500 37.744499 3.041500 3.536500 -8.700300 1.709500 -3.331600 -1.621700 0.000000 0.000000 -69.202103 -2.741900 -0.240600 75.334801 -9.090700 3.542100 -9.176600 -2.977800 3.434900 -2.141800 -0.000000 -0.000000 
0.016686 0.706088 1.121431 -0.590000 20.743500 -0.029900 11.379100 -2.944000 8.219700 7.865600 -1.089800 1.012500 7.854500 -1.090800 1.017600 0.369100 0.145800 -0.788900 -0.000000 0.000000 -0.000000 14.302600 -0.468000 -2.823500 -21.587299 2.418500 -5.041300 -49.358601 -1.552400 -35.935101 0.000000 -0.000000 -85.985703 3.814400 -13.164100 -5.820400 4.151900 5.191900 11.631500 3.247900 10.002700 8.475000 65.410202 -26.931000 -31.904699 -49.387501 0.005500 -10.180400 -28.056200 0.001800 -0.007100 -24.189100 0.001300 -0.006200 -72.029701 5.243900 -6.138800 -28.149700 0.001800 -0.007100 -7.337300 0.000100 -0.001900 -53.916302 0.006800 -12.486900 -52.594002 0.005900 -0.011900 -22.083799 0.001100 -0.005600 -50.090199 0.006100 -9.457500 -31.946501 0.002300 -0.008000 -18.042999 0.000700 -0.004700 19.422199 2.403900 5.798500 50.434799 1.720000 18.359501 -0.000000 -0.000000 6.145100 39.590500 -2.504700 -4.524300 -8.727500 -0.507400 -8.388100 -5.840000 2.023600 18.042601 -19.504700 -21.260300 23.538099 8.535200 0.003600 1.007400 29.935801 0.001100 0.003900 23.939800 0.000700 0.003200 4.308800 0.001700 -4.403000 40.999298 0.001900 0.005200 20.856701 0.000500 0.002800 10.202800 0.001400 -7.427900 46.549900 0.002500 0.005700 19.794399 0.000500 0.002700 -6.699000 -12.837600 -21.205999 37.914700 0.001700 0.004900 17.408899 0.000400 0.002400 -5.301800 5.660700 -1.150000 36.740700 4.731300 4.198900 -7.545900 1.501200 -3.546800 2.578800 -0.000000 0.000000 -68.804703 -2.883900 0.601200 59.052200 -8.911000 4.315700 -9.828800 -4.235700 3.569300 0.433300 -0.000000 0.000000 
